<?xml version="1.0" standalone="no"?>
<!DOCTYPE svg PUBLIC "-//W3C//DTD SVG 20010904//EN"
 "http://www.w3.org/TR/2001/REC-SVG-20010904/DTD/svg10.dtd">
<svg version="1.0" xmlns="http://www.w3.org/2000/svg"
 width="626.000000pt" height="447.000000pt" viewBox="0 0 626.000000 447.000000"
 preserveAspectRatio="xMidYMid meet">

<g transform="translate(0.000000,447.000000) scale(0.100000,-0.100000)"
fill="#000000" stroke="none">
<path d="M0 4290 c0 -157 2 -179 15 -174 11 5 13 2 9 -10 -3 -9 -10 -16 -15
-16 -5 0 -9 -889 -9 -2045 l0 -2045 3130 0 3130 0 0 245 0 245 -122 1 c-68 0
-148 5 -178 10 -60 11 -78 12 -160 5 -129 -10 -389 19 -367 41 3 2 -3 13 -14
24 -23 23 -25 39 -4 39 8 0 15 5 15 10 0 6 8 10 18 10 10 0 22 4 28 9 5 5 27
11 48 13 22 2 41 8 43 13 2 7 -33 12 -94 13 -84 3 -193 12 -293 26 -14 1 -34
4 -45 5 l-20 2 20 9 c18 8 17 9 -8 9 -18 1 -26 -3 -21 -10 4 -8 -27 -10 -107
-8 -63 2 -120 0 -127 -4 -13 -9 -72 12 -72 25 0 5 -47 8 -104 8 -80 0 -108 -4
-120 -15 -18 -19 -64 -19 -85 -1 -12 11 -27 12 -66 5 -111 -20 -125 -21 -154
-11 -17 6 -31 7 -31 3 0 -8 -190 -7 -330 2 -38 2 -56 1 -45 -4 11 -4 -63 -6
-165 -4 -372 9 -696 16 -729 15 -18 0 -40 5 -47 11 -7 6 -21 9 -31 7 -10 -1
-24 1 -31 5 -7 5 -14 2 -18 -7 -8 -22 -70 -21 -82 1 -7 12 -24 16 -73 16 -35
-1 -56 1 -46 4 9 2 15 8 12 13 -3 4 -26 2 -52 -6 -66 -20 -96 -18 -112 8 -13
22 -13 22 10 7 19 -13 30 -14 56 -5 17 6 35 14 39 18 12 13 26 9 18 -4 -4 -7
2 -5 13 4 27 24 43 22 44 -4 1 -17 2 -19 6 -5 3 12 11 16 31 12 15 -3 21 -2
14 1 -13 6 -7 24 9 24 7 0 8 -12 4 -30 l-7 -30 49 1 c55 0 138 15 108 19 -11
2 -44 3 -74 4 -33 1 -56 6 -58 14 -3 6 3 12 12 12 9 0 13 -5 10 -10 -3 -6 -2
-10 4 -10 5 0 12 6 14 13 4 9 6 9 6 -1 1 -7 5 -10 11 -7 14 8 59 14 180 21
117 6 145 10 160 19 12 8 -12 35 -32 35 -10 0 -10 2 1 9 8 5 20 7 28 4 8 -3
13 2 13 13 0 16 2 16 10 4 5 -9 5 -19 -2 -27 -8 -10 -3 -13 26 -13 34 0 42 8
36 35 -1 5 2 7 5 3 4 -4 16 -3 26 3 11 5 19 6 19 1 0 -14 -26 -33 -33 -25 -4
3 -7 1 -7 -5 0 -16 15 -15 30 2 6 8 18 12 26 9 8 -3 14 0 14 6 0 6 10 12 23
12 15 1 11 4 -13 9 -29 7 -26 8 20 5 30 -1 56 -7 58 -14 2 -6 8 -11 13 -11 6
0 8 3 6 8 -3 4 133 7 301 7 261 0 309 -2 319 -15 21 -26 14 -39 -25 -43 -25
-3 -22 -4 10 -2 26 1 45 -1 43 -5 -5 -8 151 -1 220 10 l50 8 -67 1 c-61 1 -66
3 -61 21 5 18 14 20 104 20 59 0 99 4 99 10 0 6 -36 11 -85 11 -119 2 -121 3
-110 38 6 21 10 21 258 19 l252 -3 -3 -25 c-1 -14 -7 -26 -12 -28 -5 -2 -3
-10 5 -19 8 -8 15 -25 15 -39 0 -13 3 -24 8 -25 4 0 16 -2 27 -4 29 -6 43 11
62 74 23 77 32 83 31 23 0 -27 3 -59 6 -70 5 -14 2 -22 -11 -26 -10 -3 55 -3
145 -1 90 2 166 6 169 9 7 6 -47 8 -163 6 l-71 -1 14 68 c8 37 15 68 16 69 6
6 477 8 477 3 0 -4 -8 -5 -19 -2 -10 3 -22 0 -25 -6 -5 -7 27 -11 104 -10 136
0 268 -10 276 -23 3 -5 12 -4 20 3 11 9 14 8 14 -2 0 -10 3 -10 11 -2 9 9 15
8 26 -3 12 -12 18 -12 44 2 30 15 30 15 19 -7 -10 -19 -10 -21 3 -16 8 3 18 3
21 -1 10 -9 41 -12 156 -13 58 0 111 -5 118 -11 8 -7 12 -7 12 1 0 6 4 11 10
11 5 0 7 -7 4 -15 -7 -17 -34 -21 -34 -5 0 6 -5 10 -11 10 -5 0 -8 -4 -5 -8 6
-11 -43 -14 -211 -15 -79 0 -143 -4 -143 -8 0 -5 71 -9 158 -10 86 0 183 -2
214 -3 l58 -2 -1 215 c-1 145 -5 218 -12 223 -8 5 -7 14 1 33 17 38 17 2905 0
2905 -9 0 -9 3 0 12 8 8 12 48 12 115 l0 103 -25 0 c-14 0 -25 -5 -25 -11 0
-8 -4 -8 -13 0 -20 16 -3884 16 -3903 0 -11 -9 -14 -8 -14 0 0 9 -28 12 -99
10 -55 -1 -98 -6 -96 -10 3 -4 -1 -12 -9 -18 -11 -9 -15 -7 -19 9 -4 17 -13
20 -64 20 -53 0 -61 -3 -73 -25 -7 -14 -17 -25 -22 -25 -13 0 -9 17 8 34 14
15 12 16 -26 16 -25 0 -39 -4 -35 -10 3 -5 2 -10 -4 -10 -5 0 -12 4 -16 9 -3
6 -151 10 -360 10 -346 1 -355 0 -355 -19 0 -13 -5 -18 -15 -14 -8 4 -15 12
-15 20 0 15 -77 17 -86 2 -3 -4 -11 -8 -17 -8 -8 0 -7 3 2 9 8 5 -56 9 -154 9
-156 1 -166 0 -153 -16 12 -15 11 -15 -14 1 -25 16 -58 17 -322 17 -280 -1
-294 -2 -299 -20 -3 -10 0 -21 7 -24 6 -2 1 -3 -12 -3 -19 1 -23 6 -19 24 2
13 1 23 -4 23 -4 0 -8 -81 -9 -180z m1249 139 c-12 -18 -30 -34 -40 -36 -10
-3 -15 -11 -12 -19 3 -8 0 -14 -5 -14 -6 0 -13 8 -15 18 -3 10 -5 6 -6 -10 0
-16 -5 -28 -9 -28 -5 0 -8 11 -8 25 2 24 11 40 25 40 3 0 20 12 36 28 42 38
63 36 34 -4z m76 20 c11 -16 2 -17 -25 -2 -24 12 -24 13 -3 13 12 0 25 -5 28
-11z m698 -10 c4 -16 3 -18 -9 -8 -16 13 -19 29 -5 29 5 0 11 -9 14 -21z m114
5 c-15 -8 -25 -19 -22 -24 3 -5 -4 -14 -15 -20 -11 -6 -20 -19 -20 -30 0 -18
-2 -18 -36 5 -41 28 -83 36 -48 10 18 -13 15 -14 -29 -15 -30 0 -46 4 -42 10
3 6 15 10 26 10 24 0 24 9 2 26 -10 7 -13 14 -6 14 6 0 15 -4 18 -10 3 -5 19
-10 34 -10 16 0 34 -7 42 -16 11 -14 13 -14 21 0 5 9 19 16 31 16 17 0 19 2 8
9 -11 7 -7 12 15 25 16 8 34 15 39 15 6 0 -3 -7 -18 -15z m118 6 c-3 -5 -12
-10 -18 -10 -7 0 -6 4 3 10 19 12 23 12 15 0z m3350 0 c3 -5 2 -10 -4 -10 -5
0 -13 5 -16 10 -3 6 -2 10 4 10 5 0 13 -4 16 -10z m-4755 -11 c13 -9 13 -10
-2 -6 -9 3 -19 1 -21 -6 -2 -7 -8 -9 -12 -5 -8 7 2 28 13 28 4 0 14 -5 22 -11z
m106 3 c-2 -4 -27 -19 -55 -32 -28 -13 -51 -28 -51 -33 0 -5 7 -6 15 -3 9 3
18 -1 22 -10 9 -23 -5 -29 -25 -11 -12 11 -22 13 -29 6 -6 -6 -19 -6 -39 1
-16 6 -51 9 -79 5 l-50 -5 44 16 c40 14 48 14 77 1 31 -15 32 -15 53 14 14 19
31 29 47 29 14 0 23 4 19 9 -4 8 6 13 48 20 5 0 6 -3 3 -7z m234 -2 c0 -5 -2
-10 -4 -10 -3 0 -8 5 -11 10 -3 6 -1 10 4 10 6 0 11 -4 11 -10z m185 0 c3 -5
-1 -10 -10 -10 -9 0 -13 5 -10 10 3 6 8 10 10 10 2 0 7 -4 10 -10z m925 -7
c-19 -13 -130 -35 -139 -27 -12 11 17 24 54 24 24 0 46 3 48 8 3 4 17 8 32 8
26 2 26 2 5 -13z m-1590 -18 c0 -8 -2 -15 -4 -15 -2 0 -6 7 -10 15 -3 8 -1 15
4 15 6 0 10 -7 10 -15z m763 -1 c-3 -8 -12 -13 -20 -10 -8 3 -19 6 -24 6 -6 0
-7 5 -4 10 3 6 17 10 30 10 18 0 23 -4 18 -16z m407 -9 c0 -3 -12 -5 -27 -4
-16 0 -22 3 -15 6 6 2 9 9 6 15 -4 6 2 5 15 -1 11 -7 21 -14 21 -16z m570 10
c-7 -8 -18 -15 -24 -15 -6 0 -2 7 8 15 25 19 32 19 16 0z m-2010 -5 c0 -5 -5
-10 -11 -10 -5 0 -7 5 -4 10 3 6 8 10 11 10 2 0 4 -4 4 -10z m145 0 c-8 -12
-3 -13 29 0 14 5 26 6 26 2 0 -11 -40 -33 -50 -27 -5 3 -11 -3 -14 -13 -4 -12
-17 -18 -46 -19 -44 -2 -45 -1 -30 28 12 21 29 26 26 7 0 -7 4 -14 9 -14 6 -1
9 2 7 8 -1 5 2 7 7 3 6 -3 15 4 21 15 6 11 13 20 16 20 3 0 2 -4 -1 -10z
m4465 6 c0 -11 -19 -15 -25 -6 -3 5 1 10 9 10 9 0 16 -2 16 -4z m-4565 -28
c-4 -13 -7 -32 -6 -43 0 -16 -2 -17 -9 -5 -5 8 -10 23 -10 33 0 14 -4 16 -19
7 -27 -14 -54 -13 -48 3 2 6 14 11 26 9 13 -1 30 2 39 8 27 15 35 12 27 -12z
m645 -11 c0 -14 -11 -28 -29 -39 -24 -13 -29 -13 -24 -2 6 16 -13 19 -22 4 -4
-6 -10 -8 -15 -5 -16 10 -40 -7 -40 -29 0 -20 -1 -20 -20 4 -16 21 -17 26 -4
28 8 2 12 8 9 13 -4 5 1 9 10 9 11 0 15 5 12 14 -4 10 2 13 19 12 19 -1 23 -5
18 -21 -5 -17 -4 -17 11 3 18 24 54 43 68 35 4 -2 7 -14 7 -26z m150 23 c0 -5
-4 -10 -10 -10 -5 0 -10 5 -10 10 0 6 5 10 10 10 6 0 10 -4 10 -10z m3870 -11
c0 -5 -4 -9 -10 -9 -5 0 -10 7 -10 16 0 8 5 12 10 9 6 -3 10 -10 10 -16z m30
11 c0 -5 -2 -10 -4 -10 -3 0 -8 5 -11 10 -3 6 -1 10 4 10 6 0 11 -4 11 -10z
m-3578 -12 c-7 -7 -12 -20 -12 -31 0 -10 -5 -15 -11 -12 -5 4 -19 -1 -30 -11
-15 -14 -17 -20 -7 -27 9 -6 8 -7 -4 -4 -17 6 -42 -15 -31 -26 3 -4 1 -7 -6
-7 -8 0 -11 8 -8 20 3 11 0 20 -6 21 -7 0 -3 4 8 9 18 8 17 9 -8 9 -33 1 -27
21 6 21 13 0 38 11 57 25 37 26 74 35 52 13z m68 -3 c0 -8 -4 -15 -10 -15 -5
0 -10 7 -10 15 0 8 5 15 10 15 6 0 10 -7 10 -15z m-740 1 c0 -3 -4 -8 -10 -11
-5 -3 -10 -1 -10 4 0 6 5 11 10 11 6 0 10 -2 10 -4z m976 -12 c-3 -9 -6 -20
-6 -25 0 -6 -4 -7 -10 -4 -16 10 -12 45 6 45 11 0 14 -5 10 -16z m514 1 c-7
-8 -18 -15 -24 -15 -6 0 -2 7 8 15 25 19 32 19 16 0z m-960 -5 c0 -5 -5 -10
-11 -10 -5 0 -7 5 -4 10 3 6 8 10 11 10 2 0 4 -4 4 -10z m180 0 c0 -5 -4 -10
-10 -10 -5 0 -10 5 -10 10 0 6 5 10 10 10 6 0 10 -4 10 -10z m180 5 c0 -2 -10
-9 -22 -15 -22 -11 -22 -10 -4 4 21 17 26 19 26 11z m-1450 -15 c0 -5 -5 -10
-11 -10 -5 0 -7 5 -4 10 3 6 8 10 11 10 2 0 4 -4 4 -10z m1360 1 c0 -6 -4 -13
-10 -16 -5 -3 -10 1 -10 9 0 9 5 16 10 16 6 0 10 -4 10 -9z m610 -1 c0 -5 -10
-10 -22 -10 -19 0 -20 2 -8 10 19 13 30 13 30 0z m2660 -6 c0 -17 -22 -14 -28
4 -2 7 3 12 12 12 9 0 16 -7 16 -16z m-3627 -8 c4 -10 1 -13 -9 -9 -15 6 -19
23 -5 23 5 0 11 -7 14 -14z m3271 -8 c-8 -28 -12 -33 -20 -25 -9 8 6 47 17 47
6 0 7 -10 3 -22z m-3213 -10 c11 -21 11 -22 -4 -9 -10 7 -17 17 -17 22 0 15 9
10 21 -13z m959 12 c0 -5 -4 -10 -10 -10 -5 0 -10 5 -10 10 0 6 5 10 10 10 6
0 10 -4 10 -10z m-2035 -5 c-23 -8 -83 -10 -79 -3 3 4 24 8 47 7 23 0 38 -2
32 -4z m575 -10 c11 -13 10 -14 -4 -9 -9 3 -16 10 -16 15 0 13 6 11 20 -6z
m717 9 c-3 -3 -12 -4 -19 -1 -8 3 -5 6 6 6 11 1 17 -2 13 -5z m318 -14 c-10
-11 -23 -20 -29 -20 -6 0 0 9 14 20 32 25 38 25 15 0z m3175 16 c0 -3 -4 -8
-10 -11 -5 -3 -10 -1 -10 4 0 6 5 11 10 11 6 0 10 -2 10 -4z m-5075 -17 c11
-17 -1 -21 -15 -4 -8 9 -8 15 -2 15 6 0 14 -5 17 -11z m500 1 c-3 -5 -17 -10
-31 -10 -14 0 -22 4 -19 10 3 6 17 10 31 10 14 0 22 -4 19 -10z m806 -7 c13
-15 12 -15 -8 -4 -24 12 -29 21 -14 21 5 0 15 -7 22 -17z m34 7 c3 -5 1 -10
-4 -10 -6 0 -11 5 -11 10 0 6 2 10 4 10 3 0 8 -4 11 -10z m599 -24 c-3 -14
-10 -26 -15 -26 -4 0 -3 14 3 31 12 36 22 33 12 -5z m147 17 c13 -16 12 -17
-3 -4 -17 13 -22 21 -14 21 2 0 10 -8 17 -17z m2631 -5 c-7 -7 -12 -8 -12 -2
0 6 3 14 7 17 3 4 9 5 12 2 2 -3 -1 -11 -7 -17z m-4345 6 c-3 -3 -12 -4 -19
-1 -8 3 -5 6 6 6 11 1 17 -2 13 -5z m338 -3 c3 -5 1 -12 -5 -16 -5 -3 -10 1
-10 9 0 18 6 21 15 7z m120 -22 c14 -22 -3 -18 -26 7 -23 25 -23 26 -2 15 12
-6 25 -16 28 -22z m-531 14 c3 7 4 3 3 -8 -4 -31 -16 -45 -40 -44 -12 0 -16 3
-9 6 19 8 14 23 -8 23 -11 0 -20 -7 -20 -15 0 -8 -4 -15 -10 -15 -15 0 -12 21
6 41 12 13 22 15 44 9 20 -6 31 -5 34 3z m4696 -8 c-7 -9 -15 -13 -17 -11 -7
7 7 26 19 26 6 0 6 -6 -2 -15z m105 -4 c-3 -6 -11 -11 -17 -11 -6 0 -6 6 2 15
14 17 26 13 15 -4z m-4965 0 c0 -6 -5 -13 -12 -17 -7 -5 -8 -3 -3 6 6 10 4 12
-8 7 -10 -3 -17 -2 -17 3 0 6 9 10 20 10 11 0 20 -4 20 -9z m60 5 c0 -2 -7 -6
-15 -10 -8 -3 -15 -1 -15 4 0 6 7 10 15 10 8 0 15 -2 15 -4z m380 -6 c0 -5 -4
-10 -10 -10 -5 0 -10 5 -10 10 0 6 5 10 10 10 6 0 10 -4 10 -10z m470 0 c0 -5
-4 -10 -10 -10 -5 0 -10 5 -10 10 0 6 5 10 10 10 6 0 10 -4 10 -10z m260 -5
c10 -12 9 -15 -4 -15 -11 0 -14 5 -10 12 5 8 0 9 -14 6 -12 -4 -20 -2 -16 3 8
14 30 11 44 -6z m-896 -10 c-4 -8 -8 -15 -10 -15 -2 0 -4 7 -4 15 0 8 4 15 10
15 5 0 7 -7 4 -15z m486 -18 c-14 -5 -33 -13 -42 -18 -9 -5 -27 -5 -39 0 -25
8 -19 15 24 25 15 4 25 11 22 16 -3 5 9 4 27 -2 l32 -11 -24 -10z m518 17 c2
-1 -13 -13 -33 -27 -24 -16 -32 -27 -23 -30 7 -3 -6 -5 -29 -5 -48 1 -51 5
-25 24 25 19 37 17 21 -3 -13 -17 0 -9 41 26 3 2 -3 1 -12 -2 -20 -7 -21 -6
-12 17 4 11 14 14 37 9 18 -3 33 -7 35 -9z m212 -6 c0 -16 -3 -19 -11 -11 -6
6 -8 16 -5 22 11 17 16 13 16 -11z m2930 12 c0 -5 -7 -10 -16 -10 -8 0 -12 5
-9 10 3 6 10 10 16 10 5 0 9 -4 9 -10z m628 -9 c3 -8 -1 -12 -9 -9 -7 2 -15
10 -17 17 -3 8 1 12 9 9 7 -2 15 -10 17 -17z m97 -3 c-11 -6 -23 -16 -27 -22
-5 -8 -8 -7 -8 1 0 12 28 32 45 32 6 0 1 -5 -10 -11z m515 8 c0 -11 -19 -15
-25 -6 -3 5 1 10 9 10 9 0 16 -2 16 -4z m-5810 -16 c0 -5 -5 -10 -11 -10 -5 0
-7 5 -4 10 3 6 8 10 11 10 2 0 4 -4 4 -10z m4460 0 c0 -5 -4 -10 -10 -10 -5 0
-10 5 -10 10 0 6 5 10 10 10 6 0 10 -4 10 -10z m-4106 -6 c15 -6 23 -44 10
-44 -8 0 -33 32 -34 43 0 9 4 9 24 1z m1206 -9 c-7 -8 -17 -15 -23 -15 -6 0
-2 7 9 15 25 19 30 19 14 0z m2985 5 c3 -5 1 -10 -4 -10 -6 0 -11 5 -11 10 0
6 2 10 4 10 3 0 8 -4 11 -10z m269 1 c4 -5 -3 -7 -14 -4 -23 6 -26 13 -6 13 8
0 17 -4 20 -9z m886 -6 c0 -11 -29 -11 -33 -1 -4 10 1 12 14 9 10 -3 19 -7 19
-8z m-5620 -33 c-27 -4 -32 0 -24 22 6 16 8 16 26 -1 20 -18 20 -18 -2 -21z
m930 16 c0 -13 -23 -5 -28 10 -2 7 2 10 12 6 9 -3 16 -11 16 -16z m453 -22 c8
5 8 2 0 -7 -18 -18 -39 3 -28 28 8 16 9 16 12 -5 3 -13 9 -20 16 -16z m-1183
-1 c0 -16 -6 -25 -15 -25 -18 0 -20 21 -3 38 17 17 18 16 18 -13z m978 -7 c-7
-13 -11 -29 -10 -35 2 -7 -4 -13 -13 -13 -20 0 -19 16 3 45 22 31 37 32 20 3z
m247 2 c3 -5 1 -10 -4 -10 -6 0 -11 5 -11 10 0 6 2 10 4 10 3 0 8 -4 11 -10z
m3469 -11 c-6 -11 -24 -2 -24 11 0 5 7 7 15 4 8 -4 12 -10 9 -15z m-4127 -31
c-3 -7 -5 -2 -5 12 0 14 2 19 5 13 2 -7 2 -19 0 -25z m348 -4 c18 -16 23 -24
12 -20 -10 3 -25 6 -34 6 -9 0 -13 6 -10 14 3 8 1 17 -6 20 -7 2 -7 5 -2 5 6
0 24 -11 40 -25z m-1165 9 c0 -5 -12 -14 -28 -20 l-27 -13 24 20 c25 22 31 24
31 13z m1258 -13 c-7 -10 -14 -17 -17 -15 -4 4 18 35 25 35 2 0 -1 -9 -8 -20z
m117 10 c-3 -5 -11 -10 -16 -10 -6 0 -7 5 -4 10 3 6 11 10 16 10 6 0 7 -4 4
-10z m-1300 -10 c8 -13 -5 -13 -25 0 -13 8 -13 10 2 10 9 0 20 -4 23 -10z
m1711 -29 c-4 -6 -13 -11 -19 -11 -7 0 -6 4 3 10 11 7 11 10 2 10 -7 0 -10 5
-6 11 4 7 10 7 16 1 6 -6 7 -15 4 -21z m3869 20 c17 -7 16 -9 -9 -15 -31 -8
-42 -3 -31 13 7 12 12 13 40 2z m225 -1 c0 -5 -2 -10 -4 -10 -3 0 -8 5 -11 10
-3 6 -1 10 4 10 6 0 11 -4 11 -10z m-4204 -22 c-2 -15 -11 -24 -25 -26 l-22
-3 23 24 c29 31 29 31 24 5z m3764 12 c0 -5 -2 -10 -4 -10 -3 0 -8 5 -11 10
-3 6 -1 10 4 10 6 0 11 -4 11 -10z m-1035 -10 c-3 -5 -10 -10 -16 -10 -5 0 -9
5 -9 10 0 6 7 10 16 10 8 0 12 -4 9 -10z m-3266 -4 c-2 -1 -19 -8 -38 -14 -29
-10 -32 -10 -21 3 7 8 24 15 38 15 14 0 23 -2 21 -4z m-199 -47 c0 -5 -4 -9
-10 -9 -5 0 -10 7 -10 16 0 8 5 12 10 9 6 -3 10 -10 10 -16z m4633 6 c-3 -9
-8 -14 -10 -11 -3 3 -2 9 2 15 9 16 15 13 8 -4z m320 7 c-7 -4 -16 -19 -22
-32 -9 -22 -10 -23 -10 -4 -1 21 16 44 34 44 6 0 5 -4 -2 -8z m-5858 -23 c11
-17 0 -20 -21 -4 -17 13 -17 14 -2 15 9 0 20 -5 23 -11z m5925 0 c0 -15 -18
-19 -23 -6 -3 8 1 14 9 14 8 0 14 -4 14 -8z m-5975 -19 c10 -11 14 -20 8 -20
-5 0 -18 9 -28 20 -10 11 -14 20 -8 20 5 0 18 -9 28 -20z m1045 10 c0 -5 -7
-7 -15 -4 -8 4 -15 8 -15 10 0 2 7 4 15 4 8 0 15 -4 15 -10z m45 -20 c3 -5 1
-10 -4 -10 -6 0 -11 5 -11 10 0 6 2 10 4 10 3 0 8 -4 11 -10z m572 -16 c-3 -3
-12 -4 -19 -1 -8 3 -5 6 6 6 11 1 17 -2 13 -5z m2565 -16 c-7 -7 -12 -8 -12
-2 0 6 3 14 7 17 3 4 9 5 12 2 2 -3 -1 -11 -7 -17z m1348 12 c0 -5 -5 -10 -11
-10 -5 0 -7 5 -4 10 3 6 8 10 11 10 2 0 4 -4 4 -10z m-4490 -20 c0 -5 -7 -7
-15 -4 -8 4 -12 10 -9 15 6 11 24 2 24 -11z m267 4 c-3 -3 -12 -4 -19 -1 -8 3
-5 6 6 6 11 1 17 -2 13 -5z m1223 -20 c0 -8 -4 -12 -10 -9 -5 3 -10 10 -10 16
0 5 5 9 10 9 6 0 10 -7 10 -16z m-2440 2 c0 -3 -4 -8 -10 -11 -5 -3 -10 -1
-10 4 0 6 5 11 10 11 6 0 10 -2 10 -4z m730 -6 c0 -5 -2 -10 -4 -10 -3 0 -8 5
-11 10 -3 6 -1 10 4 10 6 0 11 -4 11 -10z m4992 -12 c-7 -7 -12 -8 -12 -2 0
14 12 26 19 19 2 -3 -1 -11 -7 -17z m-4527 2 c4 -6 -6 -10 -22 -10 -22 0 -25
2 -13 10 19 12 27 12 35 0z m4319 -13 c29 -16 24 -27 -11 -27 -16 0 -23 6 -23
20 0 24 0 24 34 7z m-4829 -27 c-5 -8 -11 -8 -17 -2 -6 6 -7 16 -3 22 5 8 11
8 17 2 6 -6 7 -16 3 -22z m1735 26 c0 -3 -4 -8 -10 -11 -5 -3 -10 -1 -10 4 0
6 5 11 10 11 6 0 10 -2 10 -4z m60 0 c0 -3 -4 -8 -10 -11 -5 -3 -10 -1 -10 4
0 6 5 11 10 11 6 0 10 -2 10 -4z m-1753 -38 c-3 -7 -5 -2 -5 12 0 14 2 19 5
13 2 -7 2 -19 0 -25z m-842 2 c3 -11 2 -28 -4 -37 -10 -17 -10 -17 -11 2 0 16
-2 17 -10 5 -15 -24 -21 -6 -7 23 14 32 23 34 32 7z m5825 -24 c-13 -13 -35 7
-25 24 5 8 11 8 21 -1 10 -8 12 -15 4 -23z m-5045 14 c3 -6 -1 -7 -9 -4 -18 7
-21 14 -7 14 6 0 13 -4 16 -10z m1789 -6 c4 -9 4 -19 1 -22 -3 -3 -5 -1 -5 5
0 6 -7 10 -16 9 -9 0 -19 5 -21 12 -7 19 34 15 41 -4z m3311 -4 c-3 -5 -12
-10 -18 -10 -7 0 -6 4 3 10 19 12 23 12 15 0z m-5845 -31 c0 -6 -4 -7 -10 -4
-5 3 -10 11 -10 16 0 6 5 7 10 4 6 -3 10 -11 10 -16z m230 11 c0 -5 -8 -10
-17 -10 -15 0 -16 2 -3 10 19 12 20 12 20 0z m517 -32 c-3 -8 -6 -5 -6 6 -1
11 2 17 5 13 3 -3 4 -12 1 -19z m4738 12 c-3 -5 -14 -10 -23 -9 -14 0 -13 2 3
9 27 11 27 11 20 0z m-4790 -10 c-3 -5 -11 -10 -16 -10 -6 0 -7 5 -4 10 3 6
11 10 16 10 6 0 7 -4 4 -10z m-483 -38 c-4 -18 -10 -33 -14 -32 -5 0 -15 0
-24 0 -12 0 -9 8 13 33 15 19 29 33 30 33 1 -1 -2 -16 -5 -34z m-285 -34 c-3
-8 -6 -5 -6 6 -1 11 2 17 5 13 3 -3 4 -12 1 -19z m4378 -18 c3 -5 -1 -10 -9
-10 -9 0 -16 5 -16 10 0 6 4 10 9 10 6 0 13 -4 16 -10z m-4109 -37 c-11 -11
-17 4 -9 23 7 18 8 18 11 1 2 -10 1 -21 -2 -24z m3914 23 c0 -2 -7 -9 -15 -16
-12 -10 -15 -10 -15 4 0 9 7 16 15 16 8 0 15 -2 15 -4z m150 -6 c0 -5 -4 -10
-10 -10 -5 0 -10 5 -10 10 0 6 5 10 10 10 6 0 10 -4 10 -10z m190 -24 c0 -2
-7 -7 -16 -10 -8 -3 -12 -2 -9 4 6 10 25 14 25 6z m1006 -162 c-3 -26 -10 -52
-16 -59 -5 -6 -7 -14 -5 -17 3 -3 -13 -4 -36 -2 -45 3 -65 16 -55 33 5 8 13 8
25 1 16 -8 20 -4 30 36 9 34 16 44 26 40 8 -3 15 -1 15 4 0 6 5 10 11 10 8 0
10 -15 5 -46z m349 7 c-3 -12 -10 -21 -15 -21 -5 0 -4 11 2 25 13 29 23 26 13
-4z m-135 0 c0 -29 -15 -33 -16 -5 -1 13 2 24 7 24 5 0 9 -9 9 -19z m-80 -16
c0 -7 -7 -16 -16 -19 -12 -5 -15 -2 -10 10 3 8 6 20 6 25 0 6 5 7 10 4 6 -3
10 -12 10 -20z m-76 8 c4 -4 -3 -16 -16 -26 l-23 -18 23 11 c17 8 22 8 22 -3
0 -17 -41 -30 -54 -17 -5 5 -2 19 8 34 17 27 27 31 40 19z m-180 -72 c3 -5 -3
-11 -14 -14 -20 -5 -26 3 -13 16 9 10 21 9 27 -2z m-14 -41 c0 -5 -4 -10 -10
-10 -5 0 -10 5 -10 10 0 6 5 10 10 10 6 0 10 -4 10 -10z m-530 -7 c0 -5 3 -19
7 -32 5 -19 3 -23 -9 -19 -26 11 -83 -7 -80 -24 1 -9 -7 -18 -18 -21 -25 -7
-100 3 -100 13 0 13 30 20 56 14 20 -5 24 -2 24 15 0 13 -6 21 -17 21 -13 0
-14 3 -5 12 9 9 18 9 37 0 21 -10 28 -9 45 8 19 19 60 28 60 13z m80 -14 c0
-6 -4 -7 -10 -4 -5 3 -10 11 -10 16 0 6 5 7 10 4 6 -3 10 -11 10 -16z m960 11
c0 -5 -2 -10 -4 -10 -3 0 -8 5 -11 10 -3 6 -1 10 4 10 6 0 11 -4 11 -10z m-70
-16 c0 -8 -5 -12 -10 -9 -6 4 -8 11 -5 16 9 14 15 11 15 -7z m284 -9 c-6 -16
-24 -21 -24 -7 0 11 11 22 21 22 5 0 6 -7 3 -15z m-842 -37 c-7 -7 -12 -8 -12
-2 0 14 12 26 19 19 2 -3 -1 -11 -7 -17z m-28 -7 c4 -5 0 -11 -6 -14 -10 -3
-10 -7 1 -20 7 -10 9 -17 3 -17 -5 0 -16 7 -23 17 -11 13 -11 17 -1 20 6 3 10
9 6 14 -3 5 -1 9 5 9 5 0 12 -4 15 -9z m-44 -23 c0 -7 -33 -28 -43 -28 -4 0
-2 26 2 37 3 6 41 -3 41 -9z m80 -14 c0 -8 -4 -14 -10 -14 -5 0 -10 9 -10 21
0 11 5 17 10 14 6 -3 10 -13 10 -21z m-420 6 c0 -5 -4 -10 -10 -10 -5 0 -10
-8 -10 -17 0 -15 -2 -16 -10 -3 -6 10 -6 16 0 18 6 2 8 8 4 13 -3 5 2 9 10 9
9 0 16 -4 16 -10z m75 0 c17 -4 24 -8 18 -9 -7 0 -13 -8 -13 -16 0 -17 -46
-39 -61 -29 -17 10 -9 33 14 40 l22 8 -25 7 c-35 10 5 9 45 -1z m-114 -37 c6
-16 3 -22 -11 -26 -11 -3 -18 0 -17 7 1 6 -6 10 -17 8 -10 -2 -25 0 -35 3 -13
5 -10 9 14 20 39 18 56 15 66 -12z m238 -55 c-4 -31 10 -55 22 -37 4 7 12 10
16 5 11 -11 -26 -36 -54 -36 -25 0 -29 10 -11 28 9 9 6 12 -14 12 -14 0 -28 7
-32 15 -4 12 0 14 18 9 14 -3 27 1 35 10 18 22 23 20 20 -6z m-1209 -8 c0 -5
-7 -10 -15 -10 -8 0 -15 5 -15 10 0 6 7 10 15 10 8 0 15 -4 15 -10z m1125 -10
c3 -5 1 -10 -4 -10 -6 0 -11 5 -11 10 0 6 2 10 4 10 3 0 8 -4 11 -10z m295
-10 c0 -5 -4 -10 -10 -10 -5 0 -10 5 -10 10 0 6 5 10 10 10 6 0 10 -4 10 -10z
m350 0 c0 -5 -4 -10 -10 -10 -5 0 -10 5 -10 10 0 6 5 10 10 10 6 0 10 -4 10
-10z m-1410 -9 c0 -13 -29 -35 -37 -28 -3 4 -12 2 -18 -3 -8 -7 -19 -3 -36 12
-13 11 -17 19 -9 16 8 -3 24 -2 35 3 27 11 65 11 65 0z m910 -21 c0 -5 -5 -10
-11 -10 -5 0 -7 5 -4 10 3 6 8 10 11 10 2 0 4 -4 4 -10z m990 -32 c0 -16 -3
-19 -11 -11 -6 6 -8 16 -5 22 11 17 16 13 16 -11z m-2370 2 c0 -5 -9 -10 -21
-10 -11 0 -17 5 -14 10 3 6 13 10 21 10 8 0 14 -4 14 -10z m635 -29 c3 -5 1
-12 -5 -16 -5 -3 -10 1 -10 9 0 18 6 21 15 7z m-378 -55 c-16 -23 -64 -43 -75
-31 -14 13 25 60 53 65 36 7 42 -3 22 -34z m98 24 c-3 -5 -10 -10 -16 -10 -5
0 -9 5 -9 10 0 6 7 10 16 10 8 0 12 -4 9 -10z m130 -13 c7 -7 6 -8 -2 -3 -18
10 -42 -4 -36 -21 5 -13 0 -14 -28 -8 -35 8 -54 25 -41 36 20 19 87 17 107 -4z
m-500 -17 c3 -6 -1 -7 -9 -4 -18 7 -21 14 -7 14 6 0 13 -4 16 -10z m490 -10
c3 -5 1 -10 -4 -10 -6 0 -11 5 -11 10 0 6 2 10 4 10 3 0 8 -4 11 -10z m-395
-50 c0 -5 -4 -10 -9 -10 -6 0 -13 5 -16 10 -3 6 1 10 9 10 9 0 16 -4 16 -10z
m2018 -102 c-6 -16 -36 -34 -44 -26 -8 9 17 37 34 38 8 0 12 -5 10 -12z
m-1727 -38 c24 -11 37 -20 28 -20 -9 0 -21 -10 -28 -22 -11 -22 -11 -22 -8 5
5 30 -9 38 -16 10 -3 -13 -5 -11 -6 6 -1 20 -3 21 -16 11 -8 -7 -15 -21 -15
-31 0 -25 -9 -23 -45 6 -26 22 -27 25 -10 25 15 0 51 14 71 29 1 1 21 -8 45
-19z m1686 -17 c0 -10 -6 -24 -14 -31 -11 -11 -14 -11 -19 2 -6 16 11 46 26
46 3 0 7 -8 7 -17z m-1636 -26 c-10 -9 -11 -8 -5 6 3 10 9 15 12 12 3 -3 0
-11 -7 -18z m-173 -8 c1 -8 -6 -15 -17 -16 -14 -1 -17 3 -14 18 6 22 26 20 31
-2z m27 1 c3 -5 1 -10 -4 -10 -6 0 -11 5 -11 10 0 6 2 10 4 10 3 0 8 -4 11
-10z m75 -24 c0 -3 -4 -8 -10 -11 -5 -3 -10 -1 -10 4 0 6 5 11 10 11 6 0 10
-2 10 -4z m-54 -35 c-3 -5 6 -7 19 -5 14 1 25 -2 25 -7 0 -5 -15 -9 -34 -9
-28 0 -34 4 -38 25 -4 21 -3 23 14 14 10 -5 16 -14 14 -18z m370 2 c-6 -6 -36
9 -36 18 0 5 9 4 20 -3 10 -7 18 -14 16 -15z m1100 -9 c-5 -19 -3 -22 10 -17
12 4 15 2 12 -8 -3 -8 -13 -13 -22 -13 -10 1 -16 -6 -16 -19 0 -16 -3 -18 -12
-9 -8 8 -8 15 3 28 11 13 11 18 2 21 -13 5 -18 35 -7 46 14 14 35 -7 30 -29z
m-5496 16 c0 -5 -2 -10 -4 -10 -3 0 -8 5 -11 10 -3 6 -1 10 4 10 6 0 11 -4 11
-10z m3980 -22 c0 -12 -14 -10 -28 4 -19 19 -14 29 8 16 11 -7 20 -16 20 -20z
m135 22 c-3 -5 0 -10 7 -10 9 0 9 -3 -2 -10 -8 -5 -19 -10 -25 -10 -5 0 -3 5
5 10 8 5 11 10 7 10 -9 0 1 20 9 20 3 0 2 -4 -1 -10z m748 -37 c-3 -7 -10 -13
-15 -13 -6 0 -7 7 -4 16 3 9 6 21 6 27 0 7 4 7 9 -2 5 -8 7 -20 4 -28z m257
27 c0 -5 -4 -10 -10 -10 -5 0 -10 5 -10 10 0 6 5 10 10 10 6 0 10 -4 10 -10z
m-806 -11 c-3 -5 -14 -9 -25 -9 -10 0 -19 4 -19 9 0 5 11 9 25 9 13 0 22 -4
19 -9z m-4334 -9 c0 -5 -4 -10 -10 -10 -5 0 -10 5 -10 10 0 6 5 10 10 10 6 0
10 -4 10 -10z m5595 0 c3 -5 -1 -10 -9 -10 -9 0 -16 5 -16 10 0 6 4 10 9 10 6
0 13 -4 16 -10z m205 -10 c0 -16 -42 -49 -56 -43 -23 9 -16 23 16 30 17 3 30
9 30 14 0 5 2 9 5 9 3 0 5 -4 5 -10z m-5743 -6 c-3 -3 -12 -4 -19 -1 -8 3 -5
6 6 6 11 1 17 -2 13 -5z m5588 -4 c4 -7 13 -6 26 1 24 12 34 6 26 -16 -4 -8
-16 -15 -27 -15 -12 0 -18 -4 -15 -10 3 -5 -4 -10 -16 -10 -18 0 -20 2 -8 16
11 14 10 16 -11 14 -41 -4 -46 0 -20 15 30 17 37 18 45 5z m180 -20 c3 -5 -1
-10 -10 -10 -9 0 -13 5 -10 10 3 6 8 10 10 10 2 0 7 -4 10 -10z m-1455 -4 c0
-3 -4 -8 -10 -11 -5 -3 -10 -1 -10 4 0 6 5 11 10 11 6 0 10 -2 10 -4z m587
-18 c16 -7 36 -20 44 -28 14 -12 13 -17 -12 -41 -15 -15 -26 -29 -23 -31 2 -3
-29 -5 -70 -4 -59 1 -78 -3 -95 -18 -21 -19 -21 -19 -21 2 0 35 10 51 28 44
15 -5 15 -4 3 11 -12 15 -11 21 9 42 32 34 88 44 137 23z m763 -13 c0 -8 -4
-15 -10 -15 -5 0 -10 7 -10 15 0 8 5 15 10 15 6 0 10 -7 10 -15z m-320 -45 c0
-5 -4 -10 -10 -10 -5 0 -10 5 -10 10 0 6 5 10 10 10 6 0 10 -4 10 -10z m-240
-32 c0 -5 -10 -8 -22 -6 -13 2 -28 -4 -35 -12 -14 -18 -26 -9 -17 14 3 9 17
16 31 16 17 0 22 4 17 13 -5 8 -2 8 9 -2 9 -7 17 -18 17 -23z m-1375 -19 c-7
-11 -55 -12 -55 -1 0 4 5 13 12 20 13 13 52 -3 43 -19z m460 9 c39 -14 49 -23
40 -38 -6 -9 -10 -9 -16 1 -7 12 -12 12 -30 1 -19 -12 -21 -12 -16 2 4 9 -4
23 -21 37 -19 16 -21 20 -7 15 11 -5 34 -13 50 -18z m-245 8 c0 -2 3 -13 6
-23 4 -14 4 -15 -4 -4 -15 20 -30 5 -38 -37 -6 -36 -23 -77 -23 -57 0 6 3 27
8 48 5 20 7 37 6 37 -2 0 -11 -3 -20 -6 -13 -5 -14 -9 -3 -15 9 -6 6 -8 -9 -6
-12 0 -19 5 -17 9 3 4 -2 8 -10 8 -22 0 -29 -17 -11 -28 15 -8 15 -10 1 -21
-13 -11 -16 -11 -16 3 0 15 -2 15 -14 4 -7 -7 -23 -19 -34 -27 -12 -8 -19 -18
-16 -23 3 -4 1 -8 -4 -8 -5 0 -9 -19 -8 -42 1 -34 5 -44 21 -49 24 -7 22 -35
-6 -65 -22 -23 -25 -54 -6 -73 10 -11 9 -12 -2 -6 -10 6 -12 1 -6 -23 4 -18 2
-33 -5 -37 -18 -11 -9 -135 11 -149 16 -11 12 -14 -27 -25 -47 -14 -64 -10
-46 11 5 7 12 65 15 128 17 355 41 420 167 459 65 20 90 25 90 17z m1045 -16
c3 -5 2 -10 -4 -10 -5 0 -13 5 -16 10 -3 6 -2 10 4 10 5 0 13 -4 16 -10z
m-695 -73 c0 -5 -7 -7 -15 -4 -8 4 -17 2 -20 -3 -4 -6 -11 -10 -17 -10 -6 0
-6 6 2 15 11 13 10 14 -4 9 -19 -7 -20 0 -5 28 11 20 11 20 35 -3 13 -12 24
-27 24 -32z m-85 13 c-5 -8 -11 -8 -17 -2 -6 6 -7 16 -3 22 5 8 11 8 17 2 6
-6 7 -16 3 -22z m775 20 c0 -5 -2 -10 -4 -10 -3 0 -8 5 -11 10 -3 6 -1 10 4
10 6 0 11 -4 11 -10z m-187 -70 c-7 -27 -23 -15 -23 17 0 21 3 23 14 14 8 -7
12 -21 9 -31z m52 20 c-3 -5 -11 -10 -16 -10 -6 0 -7 5 -4 10 3 6 11 10 16 10
6 0 7 -4 4 -10z m-2985 -90 c0 -5 -4 -10 -10 -10 -5 0 -10 5 -10 10 0 6 5 10
10 10 6 0 10 -4 10 -10z m30 -30 c0 -5 -4 -10 -10 -10 -5 0 -10 5 -10 10 0 6
5 10 10 10 6 0 10 -4 10 -10z m2387 -7 c0 -10 3 -56 7 -103 4 -60 2 -99 -7
-131 -12 -39 -12 -50 0 -73 13 -24 12 -27 -7 -34 -12 -4 -37 -6 -57 -4 l-35 4
26 22 c29 23 31 31 41 148 6 65 3 86 -14 133 l-21 55 33 0 c24 0 33 -5 34 -17z
m111 -2 c3 -8 -1 -12 -9 -9 -7 2 -15 10 -17 17 -3 8 1 12 9 9 7 -2 15 -10 17
-17z m386 -14 c-1 -9 2 -14 7 -11 5 3 9 -2 9 -10 0 -10 -9 -16 -25 -16 -30 0
-30 3 -5 -56 11 -26 18 -49 16 -51 -6 -6 -30 41 -45 90 -11 34 -31 51 -31 27
0 -5 -11 -10 -25 -10 -19 0 -23 -4 -18 -17 4 -11 3 -14 -5 -9 -9 5 -12 -7 -12
-41 0 -35 -3 -44 -10 -33 -5 8 -10 10 -10 4 0 -5 -9 -20 -20 -32 -12 -12 -18
-22 -15 -22 3 0 -2 -14 -11 -31 -10 -19 -14 -44 -10 -63 4 -23 -1 -38 -19 -61
-14 -16 -25 -25 -25 -18 0 6 5 15 10 18 12 8 13 25 1 25 -5 0 -11 -8 -13 -18
-5 -19 -68 -30 -68 -12 0 5 7 10 15 10 8 0 15 5 15 10 0 6 6 10 14 10 8 0 18
14 21 33 4 17 14 46 23 62 9 17 17 36 18 43 1 7 11 27 23 45 11 17 29 51 39
74 22 45 40 58 99 72 47 11 58 8 57 -12z m-1684 -7 c0 -15 -28 -19 -39 -6 -6
7 -8 15 -5 18 7 8 44 -2 44 -12z m73 -25 c27 -24 33 -35 20 -35 -10 0 -63 45
-63 54 0 12 15 5 43 -19z m1872 -5 c25 -24 60 -122 51 -145 -3 -9 -2 -13 4
-10 6 3 10 1 10 -4 0 -6 -7 -11 -15 -11 -11 0 -15 11 -15 38 -1 39 -1 39 -38
-15 -7 -10 -5 -4 3 14 26 54 15 126 -16 107 -12 -6 -12 -5 0 9 10 13 11 17 1
17 -7 0 -18 -7 -25 -17 -11 -14 -13 -12 -23 17 -12 32 -11 32 16 25 15 -3 36
-15 47 -25z m-1915 -6 c0 -2 -7 -4 -15 -4 -8 0 -15 4 -15 10 0 5 7 7 15 4 8
-4 15 -8 15 -10z m-450 -13 c0 -6 -4 -13 -10 -16 -5 -3 -10 1 -10 9 0 9 5 16
10 16 6 0 10 -4 10 -9z m2980 -95 c0 -3 -4 -8 -10 -11 -5 -3 -10 -1 -10 4 0 6
5 11 10 11 6 0 10 -2 10 -4z m-1000 -10 c0 -3 -4 -8 -10 -11 -5 -3 -10 -1 -10
4 0 6 5 11 10 11 6 0 10 -2 10 -4z m-2173 -78 c-3 -8 -6 -5 -6 6 -1 11 2 17 5
13 3 -3 4 -12 1 -19z m2556 -15 c-18 -7 -16 -43 2 -43 8 0 15 5 15 11 0 5 5 7
10 4 15 -10 12 -22 -12 -46 l-23 -21 23 7 c22 6 23 4 19 -24 -4 -22 0 -34 11
-40 14 -8 12 -11 -11 -16 -34 -9 -36 -7 -40 31 -2 17 -6 34 -9 39 -18 29 2
130 21 109 3 -4 0 -9 -6 -11z m-1213 -53 c0 -5 -7 -10 -16 -10 -8 0 -12 5 -9
10 3 6 10 10 16 10 5 0 9 -4 9 -10z m-880 -9 c0 -6 -4 -13 -10 -16 -5 -3 -10
1 -10 9 0 9 5 16 10 16 6 0 10 -4 10 -9z m1125 -11 c-3 -5 -10 -10 -16 -10 -5
0 -9 5 -9 10 0 6 7 10 16 10 8 0 12 -4 9 -10z m603 -19 c-1 -14 1 -32 5 -39
11 -16 -34 -17 -51 0 -8 8 -15 8 -27 -2 -11 -9 -46 -14 -101 -14 -70 -1 -81 1
-67 12 9 7 39 11 65 11 28 -1 54 4 64 12 9 8 26 13 37 11 10 -2 25 5 32 16 21
28 47 24 43 -7z m-511 -7 c-3 -3 -12 -4 -19 -1 -8 3 -5 6 6 6 11 1 17 -2 13
-5z m-1881 -41 c-11 -11 -17 4 -9 23 7 18 8 18 11 1 2 -10 1 -21 -2 -24z
m1541 11 c-3 -3 -12 -4 -19 -1 -8 3 -5 6 6 6 11 1 17 -2 13 -5z m1198 -4 c4
-6 -5 -10 -19 -10 -14 0 -26 5 -26 10 0 6 9 10 19 10 11 0 23 -4 26 -10z
m-1365 -10 c-19 -13 -30 -13 -30 0 0 6 10 10 23 10 18 0 19 -2 7 -10z m1045
-26 c13 -9 45 -16 72 -16 26 0 54 -4 61 -10 7 -6 31 -8 55 -5 23 3 48 2 56 -2
19 -12 -4 -24 -30 -16 -16 5 -19 4 -14 -5 6 -10 -1 -12 -30 -7 -21 3 -41 10
-44 15 -3 5 -30 9 -59 9 -36 1 -59 6 -72 18 -16 15 -22 15 -35 5 -12 -10 -15
-10 -15 2 0 31 19 35 55 12z m291 -13 c-4 -5 0 -12 6 -15 7 -2 2 -3 -12 -1
-14 2 -31 4 -38 4 -24 2 -1 21 24 21 14 0 23 -4 20 -9z m-311 -31 c-3 -5 -12
-10 -20 -10 -8 0 -17 -5 -21 -11 -3 -6 1 -10 12 -9 35 4 43 0 37 -16 -8 -21
13 -34 55 -34 31 0 44 14 20 22 -7 3 -6 7 5 11 14 5 17 1 17 -24 0 -27 -2 -29
-27 -23 -55 14 -112 10 -130 -10 -17 -18 -17 -18 4 -7 30 15 43 14 43 -4 0 -8
-4 -15 -8 -15 -4 0 -9 -12 -10 -26 -1 -20 2 -25 13 -20 8 3 15 2 15 -3 0 -10
-36 -21 -44 -14 -2 3 -1 16 4 29 9 24 -1 40 -19 30 -12 -8 -23 23 -14 37 4 7
6 20 5 30 -2 9 2 17 7 17 6 0 11 5 11 11 0 5 -6 7 -12 3 -7 -4 -2 5 11 19 23
25 59 39 46 17z m-1955 -91 c0 -15 -9 -37 -20 -50 l-19 -24 -1 22 c0 12 5 25
10 28 11 7 13 45 4 69 -3 9 -10 14 -14 11 -5 -3 -6 5 -3 16 6 20 8 19 24 -12
10 -19 18 -46 19 -60z m355 71 c-3 -5 -1 -10 4 -10 6 0 11 -5 11 -11 0 -8 -5
-8 -15 1 -14 11 -19 7 -16 -12 0 -4 -6 -5 -15 -1 -13 5 -13 8 2 24 18 20 40
26 29 9z m-956 -38 c-5 -2 -9 -13 -9 -24 0 -12 -3 -19 -6 -16 -3 3 -2 23 2 44
6 31 8 35 14 19 4 -11 3 -21 -1 -23z m406 18 c3 -5 1 -10 -4 -10 -6 0 -11 5
-11 10 0 6 2 10 4 10 3 0 8 -4 11 -10z m96 -13 c-10 -9 -11 -8 -5 6 3 10 9 15
12 12 3 -3 0 -11 -7 -18z m1349 8 c0 -8 0 -17 0 -20 1 -2 16 -32 35 -66 25
-43 30 -59 19 -55 -12 5 -15 2 -9 -11 8 -20 19 -403 11 -403 -2 0 -11 14 -20
31 -13 25 -14 54 -9 154 5 113 4 126 -15 164 -12 23 -18 41 -13 41 5 0 12 -6
14 -12 3 -7 6 -8 6 -3 0 6 -3 16 -8 23 -7 12 -14 11 -39 -2 -26 -13 -32 -24
-42 -73 -19 -103 -30 -126 -24 -53 6 72 49 173 76 178 8 2 23 -4 32 -13 19
-19 21 -12 5 17 -7 14 -17 18 -32 14 -21 -5 -22 -2 -19 49 3 39 8 55 18 55 8
0 14 -7 14 -15z m-1640 -27 c0 -4 -7 -5 -17 -1 -13 5 -15 2 -11 -15 4 -12 2
-22 -3 -22 -14 0 -11 58 4 63 11 4 27 -10 27 -25z m2592 24 c2 6 14 5 31 -1
20 -8 27 -17 27 -38 0 -19 3 -24 9 -15 6 11 9 10 13 -5 10 -38 0 -41 -70 -26
-37 9 -83 19 -102 23 -19 4 -29 8 -22 9 6 0 12 8 12 17 0 11 6 15 20 11 13 -3
20 0 20 10 0 8 -5 11 -12 7 -6 -4 -8 -3 -5 3 4 7 20 8 41 3 21 -4 36 -4 38 2z
m-185 -8 c-3 -3 -12 -4 -19 -1 -8 3 -5 6 6 6 11 1 17 -2 13 -5z m-2167 -54 c4
0 17 -21 28 -47 32 -77 36 -95 21 -104 -10 -6 -18 3 -31 34 -11 28 -17 35 -18
22 -1 -15 -4 -12 -11 10 -5 17 -6 43 -3 59 4 19 3 26 -5 22 -13 -8 -14 -4 -4
21 7 17 8 17 11 1 2 -10 7 -18 12 -18z m2146 -17 c-2 -16 -5 -29 -5 -31 -1 -2
-8 3 -16 12 -22 21 -19 46 5 46 17 0 20 -5 16 -27z m94 -3 c0 -13 -20 -13 -40
0 -12 8 -9 10 13 10 15 0 27 -4 27 -10z m150 -34 c0 -24 -16 -33 -48 -29 -28
5 -31 8 -20 22 10 13 10 14 -2 4 -27 -25 -57 -4 -44 31 4 11 14 10 60 -2 29
-8 54 -20 54 -26z m-2955 24 c3 -5 -1 -10 -9 -10 -8 0 -18 5 -21 10 -3 6 1 10
9 10 8 0 18 -4 21 -10z m544 -99 c1 -72 -17 -54 -19 19 -2 30 -1 62 0 70 4 29
18 -36 19 -89z m2049 59 c1 -22 3 -48 7 -58 4 -13 -2 -22 -20 -30 -16 -7 -25
-20 -25 -33 0 -12 -3 -19 -7 -16 -16 17 18 177 38 177 4 0 7 -18 7 -40z
m-2388 -47 c0 -12 -4 -25 -10 -28 -6 -4 -7 1 -3 11 4 12 3 15 -5 10 -7 -4 -12
-14 -12 -23 0 -8 -8 -27 -19 -41 -25 -36 -44 -99 -37 -119 5 -13 4 -14 -8 -4
-9 7 -18 21 -21 32 -4 10 -10 19 -15 19 -6 0 -6 -10 0 -25 5 -14 7 -25 4 -25
-4 0 -1 -8 7 -17 12 -16 11 -17 -3 -3 -9 8 -25 32 -37 52 -17 31 -18 38 -6 48
11 9 23 9 45 2 34 -12 35 -11 44 43 4 22 16 62 28 88 21 47 22 47 35 25 7 -13
12 -33 13 -45z m2545 57 c3 -5 1 -10 -4 -10 -6 0 -11 5 -11 10 0 6 2 10 4 10
3 0 8 -4 11 -10z m-1917 -30 c-7 -11 -14 -16 -16 -11 -5 15 -33 2 -68 -31 -18
-16 -34 -26 -37 -20 -7 10 48 66 73 75 8 3 25 6 38 6 20 1 21 -1 10 -19z
m-503 -40 c5 -17 4 -22 -3 -15 -5 6 -13 21 -17 35 -5 17 -4 22 3 15 5 -5 13
-21 17 -35z m2416 3 c-9 -16 -10 -14 -11 12 0 21 3 26 11 18 8 -8 8 -16 0 -30z
m240 -6 c-8 -8 -11 -7 -11 4 0 20 13 34 18 19 3 -7 -1 -17 -7 -23z m-2891 -20
c0 -2 -12 -14 -27 -28 l-28 -24 24 28 c23 25 31 32 31 24z m570 -7 c0 -5 -4
-10 -9 -10 -6 0 -13 5 -16 10 -3 6 1 10 9 10 9 0 16 -4 16 -10z m99 -33 c-6
-13 -22 -31 -35 -38 -13 -7 -24 -16 -24 -21 0 -4 -4 -8 -10 -8 -21 0 -9 24 31
62 45 43 56 44 38 5z m-549 6 c0 -10 -5 -25 -10 -33 -7 -11 -10 -7 -10 18 0
17 5 32 10 32 6 0 10 -8 10 -17z m633 -23 c26 0 -87 -72 -116 -74 -10 0 -22
-8 -28 -16 -8 -12 -10 -11 -7 5 2 12 26 33 58 53 30 18 56 37 56 42 4 29 7 33
11 13 3 -16 12 -23 26 -23z m1894 8 c-2 -12 -8 -23 -14 -25 -6 -2 -8 7 -6 22
6 31 24 34 20 3z m-3040 -30 c-3 -7 -5 -2 -5 12 0 14 2 19 5 13 2 -7 2 -19 0
-25z m2205 -133 l-9 -90 -2 107 c0 58 2 115 7 125 12 29 14 -40 4 -142z
m-2221 98 c8 -15 15 -19 20 -12 7 12 25 -27 21 -44 -1 -4 4 -18 13 -30 25 -35
17 -41 -12 -10 -16 16 -35 34 -43 39 -18 11 -50 69 -50 90 0 20 35 -2 51 -33z
m3119 38 c0 -6 -4 -13 -10 -16 -5 -3 -10 1 -10 9 0 9 5 16 10 16 6 0 10 -4 10
-9z m-695 -121 c8 -36 18 -74 22 -85 3 -11 2 -17 -2 -13 -11 10 -55 177 -54
203 1 22 7 4 34 -105z m625 101 c0 -5 -9 -11 -20 -14 -16 -4 -20 -14 -20 -44
0 -43 -13 -72 -24 -54 -4 6 -12 9 -17 6 -5 -3 -7 0 -5 7 3 7 7 26 10 41 4 15
11 25 16 22 6 -3 10 1 10 9 0 8 8 20 18 25 21 13 32 14 32 2z m-2740 -76 c0
-14 -7 -9 -25 20 -32 52 -32 69 0 30 13 -16 24 -39 25 -50z m910 50 c-7 -8
-18 -15 -24 -15 -6 0 -2 7 8 15 25 19 32 19 16 0z m1940 5 c0 -5 -2 -10 -4
-10 -3 0 -8 5 -11 10 -3 6 -1 10 4 10 6 0 11 -4 11 -10z m-1888 -22 c-7 -7
-12 -8 -12 -2 0 14 12 26 19 19 2 -3 -1 -11 -7 -17z m3168 2 c0 -4 -11 -11
-25 -14 -19 -5 -24 -12 -23 -31 1 -14 5 -25 9 -25 4 0 9 -9 12 -20 7 -29 -8
-25 -21 5 -24 53 -7 107 30 97 10 -2 18 -8 18 -12z m-2141 -30 c0 -10 -3 -8
-9 5 -12 27 -12 43 0 25 5 -8 9 -22 9 -30z m836 18 c6 -4 2 -8 -7 -8 -10 0
-18 7 -18 17 0 9 3 12 8 7 4 -5 12 -12 17 -16z m-3170 -68 c2 -11 7 -26 11
-33 4 -6 -2 -3 -14 8 -11 11 -23 36 -27 55 -7 34 -6 35 10 12 9 -12 18 -31 20
-42z m148 -19 c-10 -13 -24 20 -17 40 8 23 8 23 14 -6 3 -16 5 -32 3 -34z
m504 53 c-3 -3 -12 -4 -19 -1 -8 3 -5 6 6 6 11 1 17 -2 13 -5z m633 -23 c0 -4
-10 -7 -22 -7 -30 0 -76 -12 -113 -29 -85 -39 -82 -38 -51 -13 51 40 108 63
148 59 21 -1 38 -6 38 -10z m1686 -33 c-2 -17 -11 -35 -18 -39 -10 -7 -9 -9 5
-9 9 0 17 -5 17 -11 0 -5 -4 -8 -9 -5 -5 4 -18 -5 -28 -18 -20 -27 -83 -46
-83 -25 0 14 101 138 113 138 5 1 6 -13 3 -31z m-671 12 c3 -5 1 -10 -4 -10
-6 0 -11 5 -11 10 0 6 2 10 4 10 3 0 8 -4 11 -10z m-975 -9 c0 -5 -28 -14 -62
-20 -35 -6 -91 -20 -126 -30 -34 -11 -60 -16 -57 -11 6 9 82 34 170 54 75 18
75 18 75 7z m-953 -53 c-2 -13 -4 -5 -4 17 -1 22 1 32 4 23 2 -10 2 -28 0 -40z
m2640 -16 c-4 -38 -10 -83 -13 -100 -6 -28 -8 -30 -22 -16 -9 10 -11 18 -5 22
5 4 10 14 11 22 1 28 13 105 18 123 12 38 17 13 11 -51z m-1357 48 c0 -5 -2
-10 -4 -10 -3 0 -8 5 -11 10 -3 6 -1 10 4 10 6 0 11 -4 11 -10z m149 -36 c-7
-18 -13 -24 -16 -16 -3 8 1 25 8 39 17 32 23 15 8 -23z m1331 31 c0 -8 -4 -15
-10 -15 -5 0 -7 7 -4 15 4 8 8 15 10 15 2 0 4 -7 4 -15z m-1825 -5 c-3 -5 -12
-10 -18 -10 -7 0 -6 4 3 10 19 12 23 12 15 0z m1740 -30 c-4 -17 -9 -29 -12
-26 -3 2 -2 19 2 36 4 17 9 29 12 26 3 -2 2 -19 -2 -36z m-1785 20 c-8 -5 -19
-10 -25 -10 -5 0 -3 5 5 10 8 5 20 10 25 10 6 0 3 -5 -5 -10z m2934 -9 c4 -5
-3 -7 -14 -4 -23 6 -26 13 -6 13 8 0 17 -4 20 -9z m-4314 -18 c0 -11 -3 -14
-8 -7 -4 6 -14 14 -22 17 -10 4 -8 6 8 6 15 1 22 -5 22 -16z m2808 -21 c2 -24
-1 -32 -12 -32 -17 0 -32 42 -21 60 12 20 30 4 33 -28z m1140 28 c15 0 15 -2
2 -10 -8 -5 -31 -10 -50 -10 -33 1 -34 1 -15 16 11 8 26 12 33 9 8 -3 21 -5
30 -5z m-4327 -22 c11 -11 19 -25 19 -30 0 -13 -20 -10 -36 6 -7 8 -19 16 -26
18 -13 5 -2 28 14 28 6 0 19 -10 29 -22z m65 -3 c4 -18 13 -25 29 -25 13 0 25
-7 29 -15 4 -12 0 -14 -19 -9 -15 4 -25 2 -25 -5 0 -6 -6 -11 -14 -11 -9 0
-12 10 -10 33 1 17 0 26 -3 20 -8 -22 -23 -14 -23 12 0 15 6 25 15 25 8 0 17
-11 21 -25z m249 15 c3 -5 -1 -10 -9 -10 -9 0 -16 5 -16 10 0 6 4 10 9 10 6 0
13 -4 16 -10z m262 -29 c15 -18 18 -28 10 -33 -21 -14 -62 -8 -87 12 -14 11
-31 20 -37 20 -7 0 -13 5 -13 10 0 6 3 9 8 9 4 -1 14 -1 22 0 13 1 13 3 1 10
-10 6 1 8 30 4 31 -4 50 -13 66 -32z m532 -26 c1 -37 -15 -68 -23 -45 -11 37
-15 80 -6 80 6 0 10 8 11 18 1 29 18 -18 18 -53z m1108 48 c-9 -9 -20 -13 -24
-9 -4 4 -1 11 7 16 25 16 35 11 17 -7z m178 8 c6 -10 -21 -41 -35 -41 -5 0
-16 -12 -24 -27 l-15 -28 -1 37 c0 27 6 41 22 52 25 18 44 20 53 7z m2115 -1
c0 -5 -6 -10 -12 -10 -10 0 -9 -3 1 -9 7 -5 11 -14 7 -19 -8 -13 57 -28 73
-17 6 3 21 -1 33 -9 12 -9 18 -16 12 -16 -5 0 -16 6 -24 13 -7 6 -2 -4 11 -23
30 -42 29 -90 -2 -90 -11 0 -22 7 -26 16 -3 8 -12 13 -20 10 -11 -4 -13 -1 -8
14 5 15 2 20 -11 20 -10 0 -26 8 -36 17 -18 16 -18 16 -12 0 4 -12 1 -17 -10
-17 -9 0 -16 -4 -16 -9 0 -4 11 -6 24 -4 33 7 43 -15 12 -27 -14 -5 -26 -16
-26 -24 0 -8 -4 -18 -10 -21 -6 -4 -7 6 -3 26 4 22 3 30 -5 25 -13 -8 -19 18
-14 62 3 19 10 32 18 32 17 0 17 10 0 32 -14 19 -79 27 -111 13 -17 -8 -18 -7
-5 8 11 12 33 16 88 17 41 0 72 -4 72 -10z m-2627 -40 c-10 -11 -32 -23 -50
-26 -19 -4 -41 -16 -49 -28 -11 -14 -18 -17 -21 -8 -3 6 -13 12 -23 12 -22 0
-33 25 -17 38 24 18 110 45 102 32 -3 -6 -20 -14 -38 -19 l-32 -9 31 -1 c21
-1 37 7 52 24 18 21 26 24 42 15 18 -10 19 -12 3 -30z m2357 11 c0 -17 -4 -33
-10 -36 -6 -4 -10 5 -10 19 0 28 -9 33 -28 14 -7 -7 -12 -8 -12 -2 0 10 35 32
53 33 4 1 7 -12 7 -28z m-4043 -1 c1 -11 -4 -20 -12 -20 -8 0 -11 7 -8 20 3
11 8 20 12 20 4 0 7 -9 8 -20z m1983 5 c0 -8 -4 -15 -10 -15 -5 0 -10 7 -10
15 0 8 5 15 10 15 6 0 10 -7 10 -15z m648 3 c-3 -7 -16 -12 -31 -11 -41 2 -44
4 -17 13 37 12 52 11 48 -2z m102 2 c0 -5 -9 -10 -20 -10 -11 0 -20 5 -20 10
0 6 9 10 20 10 11 0 20 -4 20 -10z m190 -11 c0 -5 -4 -9 -10 -9 -5 0 -10 7
-10 16 0 8 5 12 10 9 6 -3 10 -10 10 -16z m-2830 3 c0 -4 -16 -6 -35 -4 -19 2
-35 6 -35 8 0 2 16 4 35 4 19 0 35 -4 35 -8z m80 4 c0 -9 -30 -14 -35 -6 -4 6
3 10 14 10 12 0 21 -2 21 -4z m445 -16 c3 -5 1 -10 -4 -10 -6 0 -11 5 -11 10
0 6 2 10 4 10 3 0 8 -4 11 -10z m3530 0 c3 -5 1 -10 -4 -10 -6 0 -11 5 -11 10
0 6 2 10 4 10 3 0 8 -4 11 -10z m-4368 -6 c-3 -3 -12 -4 -19 -1 -8 3 -5 6 6 6
11 1 17 -2 13 -5z m2273 2 c0 -2 -9 -6 -20 -9 -11 -3 -18 -1 -14 4 5 9 34 13
34 5z m447 -33 c-3 -10 -5 -4 -5 12 0 17 2 24 5 18 2 -7 2 -21 0 -30z m278 18
c-3 -6 -11 -8 -17 -5 -6 4 -5 9 3 15 16 10 23 4 14 -10z m985 9 c0 -5 -6 -10
-14 -10 -8 0 -18 5 -21 10 -3 6 3 10 14 10 12 0 21 -4 21 -10z m720 -24 c20
-25 4 -18 -27 10 -20 19 -22 24 -7 16 11 -6 26 -18 34 -26z m-4760 14 c0 -5
-4 -10 -10 -10 -5 0 -10 5 -10 10 0 6 5 10 10 10 6 0 10 -4 10 -10z m385 -17
c-2 -37 -22 -40 -23 -3 0 18 4 30 12 30 8 0 12 -11 11 -27z m125 18 c0 -5 -7
-11 -15 -15 -15 -5 -20 5 -8 17 9 10 23 9 23 -2z m787 -28 c-3 -10 -5 -4 -5
12 0 17 2 24 5 18 2 -7 2 -21 0 -30z m672 16 c-9 -17 -8 -23 2 -30 10 -6 8 -9
-8 -9 -28 0 -32 34 -5 49 24 14 24 14 11 -10z m419 9 c-2 -6 -15 -13 -29 -14
-23 -4 -23 -3 -5 11 24 18 39 19 34 3z m1887 -10 c-4 -17 0 -26 17 -33 16 -7
22 -17 20 -35 -3 -28 -13 -40 -19 -23 -2 7 -10 10 -18 7 -19 -8 -31 57 -16 85
15 28 23 27 16 -1z m-2065 -13 c-7 -9 -15 -13 -18 -10 -3 2 1 11 8 20 7 9 15
13 18 10 3 -2 -1 -11 -8 -20z m70 15 c0 -5 -7 -10 -16 -10 -8 0 -12 5 -9 10 3
6 10 10 16 10 5 0 9 -4 9 -10z m437 -12 c-3 -8 -6 -5 -6 6 -1 11 2 17 5 13 3
-3 4 -12 1 -19z m266 2 c-3 -11 -7 -20 -9 -20 -2 0 -4 9 -4 20 0 11 4 20 9 20
5 0 7 -9 4 -20z m982 -28 c-6 -7 -34 29 -34 43 0 6 9 -1 20 -14 11 -13 17 -26
14 -29z m467 29 c2 -9 -5 -20 -16 -26 -27 -14 -32 -35 -7 -28 17 4 21 1 21
-19 0 -13 -5 -29 -12 -36 -9 -9 -15 -3 -25 26 -7 20 -13 45 -13 55 0 23 -17
22 -25 -3 -9 -28 -24 -25 -18 3 9 35 20 43 57 43 24 0 36 -5 38 -15z m65 -26
c8 -25 8 -36 -1 -40 -8 -3 -8 -7 2 -11 17 -8 15 -21 -5 -28 -10 -3 -23 -8 -29
-11 -7 -4 -10 3 -7 18 3 13 0 41 -6 62 -6 21 -8 41 -6 46 11 17 43 -5 52 -36z
m503 35 c0 -5 -5 -10 -11 -10 -5 0 -7 5 -4 10 3 6 8 10 11 10 2 0 4 -4 4 -10z
m-4940 -37 c0 -7 -12 -13 -26 -13 -14 0 -23 4 -19 10 4 6 -5 10 -19 10 -14 0
-26 5 -26 11 0 6 9 9 20 6 11 -3 20 -1 20 3 0 4 11 3 25 -3 14 -7 25 -18 25
-24z m2630 15 c0 -6 -6 -5 -15 2 -8 7 -15 14 -15 16 0 2 7 1 15 -2 8 -4 15
-11 15 -16z m1106 6 c-3 -9 -6 -18 -6 -20 0 -3 -4 -3 -10 1 -11 7 -2 35 12 35
6 0 7 -7 4 -16z m67 -6 c12 10 19 8 38 -8 l24 -21 -23 6 c-18 5 -31 0 -53 -21
-20 -19 -29 -23 -30 -13 -2 19 -1 21 7 43 5 14 4 17 -4 12 -7 -4 -12 -3 -12 2
0 18 14 21 25 5 10 -14 16 -15 28 -5z m-3903 8 c0 -3 -4 -8 -10 -11 -5 -3 -10
-1 -10 4 0 6 5 11 10 11 6 0 10 -2 10 -4z m1610 -11 c0 -10 -10 -15 -27 -15
-27 1 -27 1 -9 15 25 19 36 19 36 0z m1030 7 c0 -5 -12 -13 -27 -20 l-28 -12
30 6 c24 4 28 3 18 -7 -7 -7 -13 -21 -13 -31 0 -10 -4 -18 -10 -18 -5 0 -7 -7
-4 -15 7 -18 3 -19 -31 -3 -22 10 -27 9 -40 -8 -18 -24 -19 -12 -1 29 16 37
52 73 81 80 11 3 21 5 23 6 1 0 2 -3 2 -7z m159 -29 c1 24 21 22 21 -3 0 -20
-32 -44 -44 -33 -8 9 -8 48 1 57 5 4 11 -3 14 -16 5 -16 7 -18 8 -5z m100 -43
c4 0 12 12 19 28 l12 27 -5 -33 c-3 -20 -1 -31 5 -27 6 3 10 0 10 -9 0 -8 6
-17 13 -19 6 -3 2 -6 -10 -6 -13 -1 -23 4 -23 10 0 5 -4 8 -9 5 -5 -3 -13 0
-18 7 -14 16 -24 73 -15 82 4 4 8 -9 10 -29 2 -20 7 -36 11 -36z m1961 40 c0
-15 -5 -12 -26 11 -19 22 -19 22 4 10 12 -6 22 -16 22 -21z m230 2 c-7 -3 -19
3 -28 13 -16 15 -15 16 12 4 15 -7 23 -15 16 -17z m-2720 8 c0 -13 -11 -13
-30 0 -12 8 -11 10 8 10 12 0 22 -4 22 -10z m2597 -12 c-3 -8 -6 -5 -6 6 -1
11 2 17 5 13 3 -3 4 -12 1 -19z m-905 -13 c-2 -14 -6 -25 -7 -25 -1 0 -5 11
-7 25 -3 16 -1 25 7 25 8 0 10 -9 7 -25z m757 -9 c31 -32 31 -34 11 -39 -15
-4 -24 2 -35 23 -14 27 -19 50 -12 50 2 0 18 -15 36 -34z m-3154 14 c3 -5 -1
-10 -10 -10 -9 0 -13 5 -10 10 3 6 8 10 10 10 2 0 7 -4 10 -10z m495 -12 c0
-6 -6 -5 -15 2 -8 7 -15 14 -15 16 0 2 7 1 15 -2 8 -4 15 -11 15 -16z m677 0
c-3 -8 -6 -5 -6 6 -1 11 2 17 5 13 3 -3 4 -12 1 -19z m-1616 -10 c11 -21 11
-22 -4 -9 -10 7 -17 17 -17 22 0 15 9 10 21 -13z m1304 4 c-3 -3 -11 0 -18 7
-9 10 -8 11 6 5 10 -3 15 -9 12 -12z m-75 -22 c-9 -16 -15 -19 -23 -11 -8 8
-6 15 9 25 24 18 29 14 14 -14z m1198 3 c1 -24 0 -25 -9 -10 -5 9 -7 22 -4 27
9 15 10 13 13 -17z m742 -17 c0 -8 -4 -18 -10 -21 -6 -4 -7 1 -3 12 6 16 5 16
-10 4 -15 -12 -17 -11 -17 3 0 9 4 16 10 16 5 0 6 8 3 18 -6 16 -6 16 10 0 9
-9 17 -23 17 -32z m-3900 14 c0 -5 -4 -10 -10 -10 -5 0 -10 5 -10 10 0 6 5 10
10 10 6 0 10 -4 10 -10z m2030 -4 c0 -7 -9 -16 -19 -19 -17 -4 -20 4 -12 31 3
9 31 -1 31 -12z m149 -25 c-2 -6 -10 2 -17 17 -11 25 -11 25 4 10 9 -9 15 -21
13 -27z m1135 17 c-4 -13 -8 -58 -8 -100 -1 -46 -7 -83 -14 -90 -9 -9 -12 0
-12 43 0 68 19 169 32 169 5 0 6 -10 2 -22z m-2467 6 c-3 -3 -12 -4 -19 -1 -8
3 -5 6 6 6 11 1 17 -2 13 -5z m128 -14 c-10 -11 -23 -20 -29 -20 -6 0 0 9 14
20 32 25 38 25 15 0z m1845 10 c0 -5 -7 -10 -15 -10 -8 0 -15 5 -15 10 0 6 7
10 15 10 8 0 15 -4 15 -10z m323 -142 c9 -6 9 -8 -1 -8 -7 0 -12 -8 -10 -18 2
-11 -1 -21 -7 -23 -14 -6 -18 64 -8 141 l8 65 3 -75 c2 -44 8 -78 15 -82z
m633 125 c-7 -7 -26 7 -26 19 0 6 6 6 15 -2 9 -7 13 -15 11 -17z m634 17 c0
-5 -4 -10 -10 -10 -5 0 -10 5 -10 10 0 6 5 10 10 10 6 0 10 -4 10 -10z m-2190
-10 c0 -5 -5 -10 -11 -10 -5 0 -7 5 -4 10 3 6 8 10 11 10 2 0 4 -4 4 -10z
m1280 0 c0 -5 -4 -10 -10 -10 -5 0 -10 5 -10 10 0 6 5 10 10 10 6 0 10 -4 10
-10z m327 -17 c-3 -3 -11 -2 -17 2 -9 6 -9 10 1 16 14 8 27 -7 16 -18z m459
-2 c-3 -5 -16 -11 -28 -14 -22 -6 -22 -5 -4 8 22 17 40 20 32 6z m-2196 -21
c-27 -21 -40 -25 -40 -12 0 9 38 30 55 31 6 0 -1 -8 -15 -19z m2104 -4 c-3 -9
-10 -13 -16 -10 -5 3 -4 12 3 20 15 18 22 13 13 -10z m-3634 4 c8 -5 11 -12 7
-16 -4 -4 -15 0 -24 9 -18 18 -8 23 17 7z m225 -19 c-6 -5 -25 10 -25 20 0 5
6 4 14 -3 8 -7 12 -15 11 -17z m1495 19 c0 -5 -5 -10 -11 -10 -5 0 -7 5 -4 10
3 6 8 10 11 10 2 0 4 -4 4 -10z m-324 -16 c-4 -9 -2 -22 4 -29 8 -9 8 -15 0
-20 -5 -3 -10 1 -10 9 0 15 -17 21 -49 17 -7 -2 -10 3 -6 9 4 6 15 8 25 5 11
-3 20 0 24 10 3 8 8 15 12 15 3 0 3 -7 0 -16z m1144 -4 c0 -19 -7 -20 -171
-20 -132 0 -170 3 -167 13 3 8 49 14 164 17 87 3 162 7 167 8 4 1 7 -7 7 -18z
m66 -17 c-11 -11 -17 4 -9 23 7 18 8 18 11 1 2 -10 1 -21 -2 -24z m329 17 c0
-12 -17 -16 -82 -18 -46 -2 -83 -1 -83 2 0 29 15 34 88 33 61 -2 77 -5 77 -17z
m825 4 c0 -2 -14 -4 -31 -4 -16 0 -28 4 -25 9 5 8 56 3 56 -5z m265 6 c3 -5
-3 -10 -15 -10 -12 0 -18 5 -15 10 3 6 10 10 15 10 5 0 12 -4 15 -10z m-2723
-32 c-7 -7 -10 -5 -7 8 5 29 6 30 12 16 3 -8 1 -18 -5 -24z m281 25 c-7 -2
-19 -2 -25 0 -7 3 -2 5 12 5 14 0 19 -2 13 -5z m1902 -12 c-3 -6 -11 -8 -17
-5 -6 4 -5 9 3 15 16 10 23 4 14 -10z m59 3 c3 -8 2 -12 -4 -9 -6 3 -10 10
-10 16 0 14 7 11 14 -7z m-1634 -26 c0 7 3 12 8 12 4 0 6 -17 4 -38 -3 -35 -6
-38 -27 -34 -28 5 -42 46 -23 67 11 12 15 12 26 -3 7 -9 12 -11 12 -4z m1877
16 c-3 -3 -12 -4 -19 -1 -8 3 -5 6 6 6 11 1 17 -2 13 -5z m-2222 -14 c-4 -6
-11 -8 -16 -5 -5 4 -9 1 -9 -4 0 -6 9 -11 20 -11 11 0 20 6 20 14 0 12 20 13
118 9 64 -3 118 -7 119 -8 2 -1 5 -15 9 -31 l5 -29 -140 -1 c-123 -1 -141 1
-141 15 -1 15 -1 15 -10 0 -11 -19 -100 -26 -100 -8 0 6 6 9 13 6 8 -3 20 -1
27 3 8 5 22 4 32 -1 12 -6 18 -6 18 1 0 5 -4 10 -10 10 -16 0 -12 22 8 36 20
16 46 18 37 4z m445 -30 c0 -16 -4 -30 -9 -30 -14 0 -20 37 -8 49 16 16 17 14
17 -19z m590 15 c0 -8 -4 -15 -10 -15 -5 0 -7 7 -4 15 4 8 8 15 10 15 2 0 4
-7 4 -15z m-2765 -5 c3 -5 -3 -10 -15 -10 -12 0 -18 5 -15 10 3 6 10 10 15 10
5 0 12 -4 15 -10z m-505 -19 c0 -5 -11 -11 -25 -13 -28 -6 -35 8 -7 15 28 8
32 7 32 -2z m110 -2 c0 -5 -24 -9 -52 -8 -30 0 -45 3 -36 7 26 10 88 11 88 1z
m2517 -11 c-3 -8 -6 -5 -6 6 -1 11 2 17 5 13 3 -3 4 -12 1 -19z m-2933 -5 c27
-5 33 -13 16 -23 -9 -5 -19 -5 -26 1 -8 7 -13 6 -16 -2 -2 -6 -11 -10 -20 -8
-12 3 -14 9 -7 27 6 15 13 21 21 15 7 -4 22 -9 32 -10z m66 -4 c0 -14 -27 -10
-33 5 -4 10 0 12 14 9 10 -3 19 -9 19 -14z m98 -10 c-7 -4 -18 0 -26 9 -7 9
-11 12 -8 5 4 -6 2 -14 -4 -18 -5 -3 -10 0 -10 8 0 22 10 26 36 15 17 -8 21
-14 12 -19z m37 21 c3 -6 -1 -7 -9 -4 -18 7 -21 14 -7 14 6 0 13 -4 16 -10z
m40 0 c-3 -5 -10 -10 -16 -10 -5 0 -9 5 -9 10 0 6 7 10 16 10 8 0 12 -4 9 -10z
m-395 -21 c0 -6 -9 -9 -20 -6 -10 3 -21 0 -23 -7 -2 -6 -8 -8 -12 -4 -4 4 -4
11 0 17 8 15 55 14 55 0z m64 -4 c-7 -18 -30 -20 -40 -3 -4 6 -3 8 4 4 6 -3
13 -2 17 4 10 16 25 12 19 -5z m-289 -4 c3 -5 1 -12 -5 -16 -5 -3 -10 1 -10 9
0 18 6 21 15 7z m2315 -10 c0 -4 -6 -8 -14 -8 -8 0 -12 6 -9 14 5 13 23 9 23
-6z m1020 -33 c0 -5 -11 -8 -24 -8 -24 0 -24 2 -14 31 l11 32 13 -24 c7 -13
13 -27 14 -31z m-1063 26 c-10 -10 -58 -13 -52 -4 3 5 12 7 19 4 8 -3 17 0 21
6 4 6 10 9 13 6 3 -3 2 -9 -1 -12z m-1699 -14 c3 -8 0 -10 -9 -5 -11 6 -12 5
-1 -6 16 -18 15 -29 -3 -29 -8 0 -15 6 -15 14 0 8 -4 18 -10 21 -6 4 -7 -5 -4
-23 4 -19 1 -32 -10 -41 -14 -11 -16 -11 -16 3 0 9 5 16 11 16 5 0 7 5 3 11
-4 8 -9 8 -17 0 -6 -6 -20 -11 -31 -10 -12 0 -15 3 -8 6 6 2 12 9 12 14 0 6
-4 7 -10 4 -5 -3 -10 -1 -10 5 0 6 -4 9 -9 6 -5 -4 -12 0 -15 6 -3 7 -3 0 0
-17 4 -23 3 -27 -5 -15 -6 8 -11 10 -11 4 0 -6 3 -14 7 -18 15 -15 9 -47 -11
-57 -20 -10 -21 -10 -2 5 23 18 14 21 -15 5 -19 -10 -20 -9 -9 11 9 18 9 28
-1 46 -15 28 -29 31 -29 7 -1 -13 -5 -10 -16 9 -9 18 -20 25 -29 21 -13 -4
-13 -8 -3 -21 9 -11 9 -14 1 -9 -7 4 -16 0 -21 -9 -9 -15 -11 -15 -22 5 -9 18
-9 26 1 35 9 8 11 7 6 -7 -5 -14 -2 -14 24 5 18 14 33 19 37 13 11 -16 44 -18
54 -3 7 9 8 4 4 -14 -3 -15 -2 -30 4 -33 5 -3 10 3 10 13 0 33 31 47 70 32 3
-1 9 -2 13 -1 5 1 5 -4 1 -11 -5 -7 4 -3 19 9 29 23 58 24 65 3z m102 0 c-13
-9 -13 -10 0 -10 8 -1 5 -5 -8 -11 -26 -10 -42 -5 -42 14 0 7 4 6 10 -3 8 -13
12 -11 26 8 9 13 19 21 22 17 4 -3 0 -10 -8 -15z m47 1 c-2 -10 -1 -25 4 -32
6 -10 9 -7 10 11 1 17 3 20 6 7 2 -9 9 -15 14 -12 5 4 9 -4 10 -17 0 -13 3
-17 6 -10 2 6 9 10 14 7 5 -4 3 -12 -3 -19 -11 -11 -15 -10 -25 3 -11 15 -12
14 -18 -1 -9 -22 -55 -24 -55 -4 0 8 5 18 11 22 6 3 9 15 6 25 -3 11 -1 17 4
13 5 -3 9 2 9 10 0 9 3 16 6 16 4 0 4 -9 1 -19z m163 9 c0 -5 7 -10 15 -10 8
0 15 -7 15 -16 0 -14 -2 -14 -15 0 -17 16 -56 9 -63 -12 -5 -15 24 -16 33 -2
8 13 25 3 24 -13 0 -9 -2 -8 -6 1 -2 6 -9 9 -14 6 -6 -3 -5 -12 3 -22 11 -15
11 -15 -3 -5 -9 7 -19 10 -22 6 -9 -8 -36 15 -33 30 3 24 17 36 33 30 11 -4
14 -3 9 5 -4 7 -1 12 8 12 9 0 16 -4 16 -10z m118 -4 c-7 -8 -15 -12 -17 -11
-5 6 10 25 20 25 5 0 4 -6 -3 -14z m-814 -55 c-20 -22 -29 -5 -14 26 12 26 13
27 20 8 5 -13 3 -25 -6 -34z m420 7 c6 -31 4 -37 -8 -32 -20 8 -25 25 -14 53
10 29 13 26 22 -21z m592 22 c0 -11 -4 -20 -8 -20 -10 0 -11 24 -1 33 9 9 9
10 9 -13z m44 5 c0 -8 -4 -15 -10 -15 -5 0 -10 7 -10 15 0 8 5 15 10 15 6 0
10 -7 10 -15z m-283 -10 c0 -8 -4 -12 -9 -9 -5 3 -6 10 -3 15 9 13 12 11 12
-6z m193 -5 c0 -5 -4 -10 -10 -10 -5 0 -10 5 -10 10 0 6 5 10 10 10 6 0 10 -4
10 -10z m270 -5 c-7 -8 -16 -12 -21 -9 -13 8 -1 24 18 24 13 0 13 -3 3 -15z
m-1166 -36 c-7 -13 -24 7 -24 29 0 10 4 10 16 -2 8 -9 12 -21 8 -27z m-109 22
c3 -5 1 -12 -5 -16 -5 -3 -10 1 -10 9 0 18 6 21 15 7z m525 -1 c0 -5 -9 -11
-19 -15 -11 -3 -18 -12 -15 -20 3 -7 1 -16 -4 -19 -5 -3 -8 9 -7 27 2 18 3 32
4 32 14 5 41 2 41 -5z m270 0 c0 -5 -4 -10 -9 -10 -6 0 -13 5 -16 10 -3 6 1
10 9 10 9 0 16 -4 16 -10z m-473 -16 c-3 -3 -12 -4 -19 -1 -8 3 -5 6 6 6 11 1
17 -2 13 -5z m-187 -20 c0 -8 -5 -12 -10 -9 -6 4 -8 11 -5 16 9 14 15 11 15
-7z m60 -16 c0 7 5 10 11 6 7 -4 7 -10 1 -16 -12 -12 -32 -2 -32 15 0 7 4 6
10 -3 7 -11 10 -11 10 -2z m1190 8 c0 -3 -4 -8 -10 -11 -5 -3 -10 -1 -10 4 0
6 5 11 10 11 6 0 10 -2 10 -4z m-1250 -46 c0 -5 -4 -10 -10 -10 -5 0 -10 5
-10 10 0 6 5 10 10 10 6 0 10 -4 10 -10z m3360 -30 c0 -5 -12 -10 -27 -9 -25
0 -26 1 -8 9 27 12 35 12 35 0z m274 -2 c-3 -4 -38 -7 -77 -6 -70 1 -71 1 -22
8 64 9 105 8 99 -2z m-140 -49 c-7 -12 -84 -12 -84 0 0 10 56 19 77 13 7 -2
10 -8 7 -13z m546 6 c12 -4 51 -8 88 -10 37 -2 78 -4 92 -5 23 -1 23 -2 5 -10
-53 -22 -139 -33 -216 -27 -45 4 -87 11 -93 16 -6 5 -38 15 -71 22 -54 11 -57
13 -30 19 37 8 196 4 225 -5z m245 -15 c-3 -5 -13 -10 -21 -10 -8 0 -14 5 -14
10 0 6 9 10 21 10 11 0 17 -4 14 -10z m32 -16 c-3 -3 -12 -4 -19 -1 -8 3 -5 6
6 6 11 1 17 -2 13 -5z m-89 -71 c-2 -23 -7 -28 -28 -25 -53 6 -53 52 0 52 28
0 31 -3 28 -27z"/>
<path d="M1525 4340 c-3 -5 -2 -10 4 -10 5 0 13 5 16 10 3 6 2 10 -4 10 -5 0
-13 -4 -16 -10z"/>
<path d="M5551 3544 c0 -11 3 -14 6 -6 3 7 2 16 -1 19 -3 4 -6 -2 -5 -13z"/>
<path d="M4865 3390 c-3 -5 -1 -10 4 -10 6 0 11 5 11 10 0 6 -2 10 -4 10 -3 0
-8 -4 -11 -10z"/>
<path d="M4950 2635 c1 -26 2 -28 11 -12 8 14 8 22 0 30 -8 8 -11 3 -11 -18z"/>
<path d="M4890 2632 c0 -5 6 -16 13 -27 16 -20 31 -7 21 19 -6 16 -34 23 -34
8z"/>
<path d="M4992 2624 c-27 -19 -28 -34 -3 -34 11 0 23 9 26 21 9 28 3 31 -23
13z"/>
<path d="M4736 1972 c-3 -6 -1 -14 5 -17 15 -10 25 3 12 16 -7 7 -13 7 -17 1z"/>
<path d="M4655 1940 c-3 -5 3 -10 15 -10 12 0 18 5 15 10 -3 6 -10 10 -15 10
-5 0 -12 -4 -15 -10z"/>
<path d="M4772 1410 c0 -14 2 -19 5 -12 2 6 2 18 0 25 -3 6 -5 1 -5 -13z"/>
<path d="M4695 1330 c-3 -6 1 -7 9 -4 18 7 21 14 7 14 -6 0 -13 -4 -16 -10z"/>
<path d="M5651 1164 c0 -11 3 -14 6 -6 3 7 2 16 -1 19 -3 4 -6 -2 -5 -13z"/>
<path d="M1536 828 c3 -4 9 -8 15 -8 5 0 9 4 9 8 0 5 -7 9 -15 9 -8 0 -12 -4
-9 -9z"/>
<path d="M4483 923 c15 -2 37 -2 50 0 12 2 0 4 -28 4 -27 0 -38 -2 -22 -4z"/>
<path d="M4568 918 c9 -9 15 -9 24 0 9 9 7 12 -12 12 -19 0 -21 -3 -12 -12z"/>
<path d="M4655 920 c-3 -5 1 -10 9 -10 9 0 16 5 16 10 0 6 -4 10 -9 10 -6 0
-13 -4 -16 -10z"/>
<path d="M3440 890 c0 -5 5 -10 11 -10 5 0 7 5 4 10 -3 6 -8 10 -11 10 -2 0
-4 -4 -4 -10z"/>
<path d="M3314 879 c-3 -5 7 -9 22 -9 15 0 24 3 20 7 -11 11 -35 12 -42 2z"/>
<path d="M4350 860 c14 -9 298 -15 289 -6 -2 2 -71 7 -154 10 -95 3 -144 2
-135 -4z"/>
<path d="M2690 779 c0 -5 5 -7 10 -4 6 3 10 8 10 11 0 2 -4 4 -10 4 -5 0 -10
-5 -10 -11z"/>
<path d="M4418 763 c7 -3 16 -2 19 1 4 3 -2 6 -13 5 -11 0 -14 -3 -6 -6z"/>
<path d="M6015 740 c-4 -6 5 -10 20 -10 15 0 24 4 20 10 -3 6 -12 10 -20 10
-8 0 -17 -4 -20 -10z"/>
<path d="M5341 731 c-20 -5 -16 -8 23 -19 35 -9 52 -9 67 -1 12 6 19 12 17 13
-8 8 -85 12 -107 7z"/>
<path d="M5838 733 c7 -3 16 -2 19 1 4 3 -2 6 -13 5 -11 0 -14 -3 -6 -6z"/>
<path d="M6111 730 c-17 -4 -5 -8 43 -16 37 -5 72 -6 79 -2 9 6 8 8 -3 8 -8 1
-33 4 -55 9 -22 4 -51 5 -64 1z"/>
<path d="M5498 720 c12 -5 53 -12 90 -14 52 -4 58 -4 27 3 -71 15 -143 22
-117 11z"/>
<path d="M5788 686 c-23 -17 -23 -26 -1 -26 10 0 26 -11 38 -25 19 -24 29 -26
165 -36 80 -6 173 -13 208 -16 l62 -5 0 45 0 45 -137 6 c-76 3 -172 11 -213
16 -94 13 -101 12 -122 -4z"/>
<path d="M5692 668 c-6 -6 -26 -12 -44 -12 -22 -1 -33 -6 -33 -16 0 -12 10
-14 47 -12 26 2 60 7 75 12 28 8 28 8 3 9 l-25 2 25 14 25 14 -30 1 c-17 0
-36 -5 -43 -12z"/>
<path d="M5508 633 c7 -3 16 -2 19 1 4 3 -2 6 -13 5 -11 0 -14 -3 -6 -6z"/>
</g>
</svg>
